<svg width="20" height="20" viewBox="0 0 20 20" fill="none" xmlns="http://www.w3.org/2000/svg">
<path d="M10.7681 3.08447C14.5875 3.08447 17.6841 6.18102 17.6841 10.0005C17.6839 13.8198 14.5875 16.9155 10.7681 16.9155H2.31592V10.769C2.31592 6.52518 5.75663 3.08447 10.0005 3.08447H10.7681ZM6.92822 9.23193C6.504 9.23213 6.16064 9.57622 6.16064 10.0005C6.16078 10.4246 6.50409 10.7688 6.92822 10.769C7.35252 10.769 7.69664 10.4248 7.69678 10.0005C7.69678 9.5761 7.35261 9.23193 6.92822 9.23193ZM10.0005 9.23193C9.5761 9.23193 9.23193 9.5761 9.23193 10.0005C9.23207 10.4248 9.57618 10.769 10.0005 10.769C10.4246 10.7688 10.7679 10.4246 10.7681 10.0005C10.7681 9.57623 10.4247 9.23214 10.0005 9.23193ZM13.0718 9.23193C12.6474 9.23193 12.3032 9.5761 12.3032 10.0005C12.3034 10.4248 12.6475 10.769 13.0718 10.769C13.4959 10.7689 13.8402 10.4247 13.8403 10.0005C13.8403 9.5762 13.496 9.23209 13.0718 9.23193Z" fill="#1383D3"/>
</svg>
