<svg width="20" height="20" viewBox="0 0 20 20" fill="none" xmlns="http://www.w3.org/2000/svg">
<path fill-rule="evenodd" clip-rule="evenodd" d="M1.66666 5.83333C1.66666 3.99238 3.15904 2.5 4.99999 2.5H15C16.8409 2.5 18.3333 3.99238 18.3333 5.83333V14.1667C18.3333 16.0076 16.8409 17.5 15 17.5H4.99999C3.15904 17.5 1.66666 16.0076 1.66666 14.1667V5.83333ZM11.875 11.6667C11.875 11.3215 12.1548 11.0417 12.5 11.0417H15C15.3452 11.0417 15.625 11.3215 15.625 11.6667C15.625 12.0118 15.3452 12.2917 15 12.2917H12.5C12.1548 12.2917 11.875 12.0118 11.875 11.6667ZM11.875 14.1667C11.875 13.8215 12.1548 13.5417 12.5 13.5417H15C15.3452 13.5417 15.625 13.8215 15.625 14.1667C15.625 14.5118 15.3452 14.7917 15 14.7917H12.5C12.1548 14.7917 11.875 14.5118 11.875 14.1667ZM6.66666 5.83333H8.33332C9.2538 5.83333 9.99999 6.57953 9.99999 7.5C9.99999 8.42047 9.2538 9.16667 8.33332 9.16667H6.66666C5.74618 9.16667 4.99999 8.42047 4.99999 7.5C4.99999 6.57953 5.74618 5.83333 6.66666 5.83333Z" fill="#1383D3"/>
</svg>
