<svg width="20" height="20" viewBox="0 0 20 20" fill="none" xmlns="http://www.w3.org/2000/svg">
<path d="M8.33301 10.833C11.5547 10.833 14.167 12.326 14.167 14.167C14.1667 16.0078 11.5545 17.5 8.33301 17.5C5.11169 17.4999 2.50031 16.0077 2.5 14.167C2.5 12.3261 5.1115 10.8331 8.33301 10.833ZM15 6.04199C15.3452 6.04199 15.625 6.32181 15.625 6.66699V7.70801H16.667C17.0119 7.70818 17.2918 7.98809 17.292 8.33301C17.292 8.67808 17.012 8.95783 16.667 8.95801H15.625V10C15.625 10.3452 15.3452 10.625 15 10.625C14.6548 10.625 14.375 10.3452 14.375 10V8.95801H13.333C12.988 8.95783 12.708 8.67808 12.708 8.33301C12.7082 7.98809 12.9881 7.70818 13.333 7.70801H14.375V6.66699C14.375 6.32181 14.6548 6.04199 15 6.04199ZM8.33301 2.5C10.1738 2.5 11.6668 3.99221 11.667 5.83301C11.667 7.67396 10.174 9.16699 8.33301 9.16699C6.49221 9.16682 5 7.67385 5 5.83301C5.00018 3.99232 6.49232 2.50018 8.33301 2.5Z" fill="#1383D3"/>
</svg>
