<svg width="20" height="20" viewBox="0 0 20 20" fill="none" xmlns="http://www.w3.org/2000/svg">
<path fill-rule="evenodd" clip-rule="evenodd" d="M8.26795 2.14273C9.33975 1.50801 10.6603 1.50801 11.732 2.14273L15.7679 4.53279C16.8397 5.16751 17.5 6.34052 17.5 7.60996V12.3901C17.5 13.6595 16.8397 14.8325 15.7679 15.4673L15.2509 15.7735L11.732 17.8573C10.6603 18.492 9.33975 18.492 8.26795 17.8573L4.74913 15.7735L4.23205 15.4673C3.16025 14.8325 2.5 13.6595 2.5 12.3901V7.60996C2.5 6.34052 3.16025 5.16751 4.23205 4.53279L8.26795 2.14273ZM13.4126 12.6701C12.5191 12.0477 11.3192 11.6667 10 11.6667C8.68076 11.6667 7.48086 12.0477 6.58736 12.6701C6.15855 12.9688 6.24835 13.5824 6.69648 13.8512L9.57125 15.5761C9.83516 15.7344 10.1648 15.7344 10.4287 15.5761L13.3035 13.8512C13.7517 13.5824 13.8414 12.9688 13.4126 12.6701ZM10 5.00002C11.3807 5.00002 12.5 6.11931 12.5 7.50002C12.5 8.88073 11.3807 10 10 10C8.61929 10 7.5 8.88073 7.5 7.50002C7.5 6.11931 8.61929 5.00002 10 5.00002Z" fill="#1383D3"/>
</svg>
