<svg width="20" height="21" viewBox="0 0 20 21" fill="none" xmlns="http://www.w3.org/2000/svg">
<path d="M15.2509 16.5658L15.7679 16.2595C16.8397 15.6248 17.5 14.4518 17.5 13.1824V8.40225C17.5 7.13282 16.8397 5.95981 15.7679 5.32509L11.732 2.93502C10.6603 2.3003 9.33975 2.3003 8.26795 2.93502L4.23205 5.32509C3.16025 5.95981 2.5 7.13282 2.5 8.40225V13.1824C2.5 14.4518 3.16025 15.6248 4.23205 16.2595L4.74913 16.5658M15.2509 16.5658L11.732 18.6496C10.6603 19.2843 9.33975 19.2843 8.26795 18.6496L4.74913 16.5658M15.2509 16.5658C14.2026 14.7075 12.2436 13.4572 9.99999 13.4572C7.75635 13.4572 5.79739 14.7075 4.74913 16.5658" stroke="#28303F" stroke-width="1.5" stroke-linejoin="round"/>
<circle cx="2.5" cy="2.5" r="2.5" transform="matrix(1 0 0 -1 7.5 10.792)" stroke="#28303F" stroke-width="1.5" stroke-linejoin="round"/>
</svg>
