<svg width="20" height="20" viewBox="0 0 20 20" fill="none" xmlns="http://www.w3.org/2000/svg">
<path d="M14.814 3.06543C16.4987 3.53653 17.7349 5.08192 17.7349 6.91699V13.917C17.7347 16.126 15.9439 17.9169 13.7349 17.917H6.73486C4.52581 17.917 2.73501 16.126 2.73486 13.917V6.91699C2.73486 5.08252 3.96994 3.53708 5.65381 3.06543C5.73119 4.60711 7.007 5.83386 8.56787 5.83398H11.9019C13.4626 5.83377 14.7365 4.60702 14.814 3.06543ZM7.31787 13.75C6.85785 13.7501 6.48504 14.123 6.48486 14.583C6.48486 15.0432 6.85775 15.4169 7.31787 15.417C7.77811 15.417 8.15186 15.0432 8.15186 14.583C8.15168 14.1229 7.778 13.75 7.31787 13.75ZM10.2349 13.958C9.88979 13.958 9.61004 14.238 9.60986 14.583C9.60986 14.9282 9.88969 15.208 10.2349 15.208H13.5679C13.913 15.208 14.1929 14.9282 14.1929 14.583C14.1927 14.238 13.9129 13.958 13.5679 13.958H10.2349ZM7.31787 10.417C6.85775 10.4171 6.48486 10.7898 6.48486 11.25C6.48486 11.7102 6.85775 12.0829 7.31787 12.083C7.77811 12.083 8.15186 11.7102 8.15186 11.25C8.15186 10.7898 7.77811 10.417 7.31787 10.417ZM10.2349 10.625C9.88969 10.625 9.60986 10.9048 9.60986 11.25C9.60986 11.5952 9.88969 11.875 10.2349 11.875H13.5679C13.913 11.875 14.1929 11.5952 14.1929 11.25C14.1929 10.9048 13.913 10.625 13.5679 10.625H10.2349ZM7.31787 7.08301C6.85775 7.08314 6.48486 7.45684 6.48486 7.91699C6.48504 8.377 6.85785 8.74987 7.31787 8.75C7.778 8.75 8.15168 8.37708 8.15186 7.91699C8.15186 7.45675 7.77811 7.08301 7.31787 7.08301ZM10.2349 7.29199C9.88969 7.29199 9.60986 7.57181 9.60986 7.91699C9.61004 8.26202 9.88979 8.54199 10.2349 8.54199H13.5679C13.9129 8.54199 14.1927 8.26202 14.1929 7.91699C14.1929 7.57181 13.913 7.29199 13.5679 7.29199H10.2349ZM11.9019 1.25C12.8221 1.25022 13.5679 1.99665 13.5679 2.91699C13.5677 3.83718 12.822 4.58279 11.9019 4.58301H8.56787C7.64762 4.58288 6.90203 3.83724 6.90186 2.91699C6.90186 1.9966 7.64751 1.25013 8.56787 1.25H11.9019Z" fill="#1383D3"/>
</svg>
