<svg width="20" height="20" viewBox="0 0 20 20" fill="none" xmlns="http://www.w3.org/2000/svg">
<path d="M13.3333 3.33335H14.1667C16.0076 3.33335 17.5 4.82574 17.5 6.66669V15C17.5 16.841 16.0076 18.3334 14.1667 18.3334H5.83333C3.99238 18.3334 2.5 16.841 2.5 15V6.66669C2.5 4.82574 3.99238 3.33335 5.83333 3.33335H6.66667M13.3333 3.33335C13.3333 4.25383 12.5871 5.00002 11.6667 5.00002H8.33333C7.41286 5.00002 6.66667 4.25383 6.66667 3.33335M13.3333 3.33335C13.3333 2.41288 12.5871 1.66669 11.6667 1.66669H8.33333C7.41286 1.66669 6.66667 2.41288 6.66667 3.33335M10 8.33335H13.3333M10 11.6667H13.3333M10 15H13.3333" stroke="#28303F" stroke-width="1.5" stroke-linecap="round"/>
<path d="M7.91667 8.33333C7.91667 8.79357 7.54357 9.16667 7.08333 9.16667C6.6231 9.16667 6.25 8.79357 6.25 8.33333C6.25 7.8731 6.6231 7.5 7.08333 7.5C7.54357 7.5 7.91667 7.8731 7.91667 8.33333Z" fill="#28303F"/>
<path d="M7.91667 11.6666C7.91667 12.1269 7.54357 12.5 7.08333 12.5C6.6231 12.5 6.25 12.1269 6.25 11.6666C6.25 11.2064 6.6231 10.8333 7.08333 10.8333C7.54357 10.8333 7.91667 11.2064 7.91667 11.6666Z" fill="#28303F"/>
<path d="M7.91667 15C7.91667 15.4603 7.54357 15.8334 7.08333 15.8334C6.6231 15.8334 6.25 15.4603 6.25 15C6.25 14.5398 6.6231 14.1667 7.08333 14.1667C7.54357 14.1667 7.91667 14.5398 7.91667 15Z" fill="#28303F"/>
</svg>
