<svg width="20" height="21" viewBox="0 0 20 21" fill="none" xmlns="http://www.w3.org/2000/svg">
<path d="M13.3333 4.12565H14.1667C16.0076 4.12565 17.5 5.61804 17.5 7.45898V15.7923C17.5 17.6333 16.0076 19.1257 14.1667 19.1257H5.83333C3.99238 19.1257 2.5 17.6333 2.5 15.7923V7.45898C2.5 5.61804 3.99238 4.12565 5.83333 4.12565H6.66667M13.3333 4.12565C13.3333 5.04613 12.5871 5.79232 11.6667 5.79232H8.33333C7.41286 5.79232 6.66667 5.04613 6.66667 4.12565M13.3333 4.12565C13.3333 3.20518 12.5871 2.45898 11.6667 2.45898H8.33333C7.41286 2.45898 6.66667 3.20518 6.66667 4.12565M10 9.12565H13.3333M10 12.459H13.3333M10 15.7923H13.3333" stroke="#28303F" stroke-width="1.5" stroke-linecap="round"/>
<path d="M7.91667 9.12533C7.91667 9.58556 7.54357 9.95866 7.08333 9.95866C6.6231 9.95866 6.25 9.58556 6.25 9.12533C6.25 8.66509 6.6231 8.29199 7.08333 8.29199C7.54357 8.29199 7.91667 8.66509 7.91667 9.12533Z" fill="#28303F"/>
<path d="M7.91667 12.4583C7.91667 12.9186 7.54357 13.2917 7.08333 13.2917C6.6231 13.2917 6.25 12.9186 6.25 12.4583C6.25 11.9981 6.6231 11.625 7.08333 11.625C7.54357 11.625 7.91667 11.9981 7.91667 12.4583Z" fill="#28303F"/>
<path d="M7.91667 15.7923C7.91667 16.2526 7.54357 16.6257 7.08333 16.6257C6.6231 16.6257 6.25 16.2526 6.25 15.7923C6.25 15.3321 6.6231 14.959 7.08333 14.959C7.54357 14.959 7.91667 15.3321 7.91667 15.7923Z" fill="#28303F"/>
</svg>
