<svg width="20" height="21" viewBox="0 0 20 21" fill="none" xmlns="http://www.w3.org/2000/svg">
<path d="M14.814 3.85742C16.4987 4.32852 17.7349 5.87391 17.7349 7.70898V14.709C17.7347 16.918 15.9439 18.7089 13.7349 18.709H6.73486C4.52581 18.709 2.73501 16.918 2.73486 14.709V7.70898C2.73486 5.87451 3.96994 4.32907 5.65381 3.85742C5.73119 5.39911 7.007 6.62585 8.56787 6.62598H11.9019C13.4626 6.62576 14.7365 5.39901 14.814 3.85742ZM7.31787 14.542C6.85785 14.5421 6.48504 14.915 6.48486 15.375C6.48486 15.8352 6.85775 16.2089 7.31787 16.209C7.77811 16.209 8.15186 15.8352 8.15186 15.375C8.15168 14.9149 7.778 14.542 7.31787 14.542ZM10.2349 14.75C9.88979 14.75 9.61004 15.03 9.60986 15.375C9.60986 15.7202 9.88969 16 10.2349 16H13.5679C13.913 16 14.1929 15.7202 14.1929 15.375C14.1927 15.03 13.9129 14.75 13.5679 14.75H10.2349ZM7.31787 11.209C6.85775 11.2091 6.48486 11.5818 6.48486 12.042C6.48486 12.5021 6.85775 12.8749 7.31787 12.875C7.77811 12.875 8.15186 12.5022 8.15186 12.042C8.15186 11.5818 7.77811 11.209 7.31787 11.209ZM10.2349 11.417C9.88969 11.417 9.60986 11.6968 9.60986 12.042C9.60986 12.3872 9.88969 12.667 10.2349 12.667H13.5679C13.913 12.667 14.1929 12.3872 14.1929 12.042C14.1929 11.6968 13.913 11.417 13.5679 11.417H10.2349ZM7.31787 7.875C6.85775 7.87513 6.48486 8.24883 6.48486 8.70898C6.48504 9.16899 6.85785 9.54186 7.31787 9.54199C7.778 9.54199 8.15168 9.16907 8.15186 8.70898C8.15186 8.24875 7.77811 7.875 7.31787 7.875ZM10.2349 8.08398C9.88969 8.08398 9.60986 8.36381 9.60986 8.70898C9.61004 9.05401 9.88979 9.33398 10.2349 9.33398H13.5679C13.9129 9.33398 14.1927 9.05401 14.1929 8.70898C14.1929 8.36381 13.913 8.08398 13.5679 8.08398H10.2349ZM11.9019 2.04199C12.8221 2.04221 13.5679 2.78865 13.5679 3.70898C13.5677 4.62917 12.822 5.37478 11.9019 5.375H8.56787C7.64762 5.37487 6.90203 4.62923 6.90186 3.70898C6.90186 2.78859 7.64751 2.04212 8.56787 2.04199H11.9019Z" fill="#1B5779"/>
</svg>
