<svg width="20" height="21" viewBox="0 0 20 21" fill="none" xmlns="http://www.w3.org/2000/svg">
<path d="M10 11.5723C11.3411 11.5723 12.5912 11.797 13.5332 12.1895C14.0025 12.385 14.431 12.638 14.7539 12.9561C15.0794 13.2768 15.3389 13.7092 15.3389 14.2344C15.3387 14.7594 15.0793 15.192 14.7539 15.5127C14.4311 15.8306 14.0023 16.0828 13.5332 16.2783C12.5912 16.6708 11.3411 16.8955 10 16.8955C8.65911 16.8955 7.4097 16.6707 6.46777 16.2783C5.99846 16.0828 5.56902 15.8308 5.24609 15.5127C4.92059 15.192 4.66223 14.7594 4.66211 14.2344C4.66211 13.7093 4.92067 13.2768 5.24609 12.9561C5.56902 12.638 5.99845 12.385 6.46777 12.1895C7.40969 11.7971 8.65915 11.5723 10 11.5723ZM6.12109 11.5742C5.14353 12.0257 4.41907 12.6435 4.08594 13.3516C3.96653 13.3878 3.85407 13.4256 3.75098 13.4668C3.45756 13.5842 3.26956 13.7057 3.16797 13.8018C3.1469 13.8217 3.13174 13.8385 3.12109 13.8516C3.1318 13.8647 3.14669 13.8822 3.16797 13.9023C3.26956 13.9984 3.45767 14.119 3.75098 14.2363C3.79369 14.2534 3.83917 14.2679 3.88477 14.2842C3.90105 14.9245 4.22711 15.5221 4.78418 16.0322C4.19412 15.948 3.65227 15.813 3.19434 15.6299C2.79632 15.4706 2.4229 15.2618 2.1377 14.9922C1.85092 14.7209 1.60258 14.3352 1.60254 13.8516C1.60261 13.3681 1.85102 12.9832 2.1377 12.7119C2.42293 12.4422 2.79622 12.2335 3.19434 12.0742C3.98184 11.7593 5.01527 11.5801 6.12109 11.5742ZM13.8789 11.5742C14.9847 11.5801 16.0182 11.7593 16.8057 12.0742C17.2039 12.2335 17.577 12.4421 17.8623 12.7119C18.149 12.9832 18.3974 13.3681 18.3975 13.8516C18.3974 14.3353 18.1491 14.7209 17.8623 14.9922C17.577 15.2619 17.2038 15.4706 16.8057 15.6299C16.3475 15.8131 15.8054 15.9481 15.2148 16.0322C15.7722 15.522 16.098 14.9247 16.1143 14.2842C16.1602 14.2678 16.206 14.2535 16.249 14.2363C16.542 14.1191 16.7294 13.9983 16.8311 13.9023C16.8523 13.8823 16.8672 13.8647 16.8779 13.8516C16.8672 13.8385 16.8522 13.8218 16.8311 13.8018C16.7295 13.7057 16.5424 13.5842 16.249 13.4668C16.1456 13.4254 16.0329 13.3879 15.9131 13.3516C15.5799 12.6436 14.8563 12.0256 13.8789 11.5742ZM10 13.0723C8.80784 13.0723 7.76337 13.275 7.04492 13.5742C6.68414 13.7245 6.44026 13.8851 6.29883 14.0244C6.16027 14.161 6.16211 14.2317 6.16211 14.2344C6.16211 14.2405 6.16378 14.3113 6.29883 14.4443C6.44028 14.5836 6.68427 14.7433 7.04492 14.8936C7.76337 15.1928 8.80779 15.3955 10 15.3955C11.1925 15.3955 12.2376 15.1929 12.9561 14.8936C13.3168 14.7432 13.5608 14.5836 13.7021 14.4443C13.837 14.3114 13.8389 14.2405 13.8389 14.2344C13.8389 14.2317 13.8404 14.1608 13.7021 14.0244C13.5608 13.8851 13.3168 13.7246 12.9561 13.5742C12.2376 13.2749 11.1925 13.0723 10 13.0723ZM6.17578 6.21973C6.27798 6.21973 6.37891 6.22818 6.47754 6.24121C6.28479 6.69546 6.17874 7.19565 6.17676 7.71973H6.17578C5.74571 7.72011 5.39658 8.06888 5.39648 8.49902C5.39674 8.92902 5.74581 9.27794 6.17578 9.27832C6.28157 9.27832 6.38265 9.25595 6.47461 9.21777C6.67324 9.68916 6.96439 10.1122 7.32422 10.4648C6.98679 10.6622 6.59495 10.7783 6.17578 10.7783C4.91738 10.7779 3.89674 9.75745 3.89648 8.49902C3.89658 7.24045 4.91728 6.22011 6.17578 6.21973ZM13.8232 6.21973C15.0819 6.21987 16.1024 7.24031 16.1025 8.49902C16.1023 9.7576 15.0818 10.7782 13.8232 10.7783C13.4043 10.7782 13.013 10.6621 12.6758 10.4648C13.0356 10.1123 13.3258 9.68904 13.5244 9.21777C13.6164 9.25608 13.7174 9.27824 13.8232 9.27832C14.2534 9.27818 14.6023 8.92917 14.6025 8.49902C14.6024 8.06873 14.2535 7.71987 13.8232 7.71973C13.8213 7.1955 13.7143 6.69556 13.5215 6.24121C13.6202 6.22812 13.7209 6.21975 13.8232 6.21973ZM10 4.68945C11.681 4.68953 13.0436 6.0525 13.0439 7.7334C13.0439 9.41457 11.6812 10.7773 10 10.7773C8.31886 10.7772 6.95605 9.41456 6.95605 7.7334C6.95638 6.05252 8.31906 4.68955 10 4.68945ZM10 6.18945C9.14749 6.18955 8.45638 6.88094 8.45605 7.7334C8.45605 8.58613 9.14729 9.27725 10 9.27734C10.8527 9.27727 11.5439 8.58615 11.5439 7.7334C11.5436 6.88093 10.8525 6.18953 10 6.18945Z" fill="#28303F"/>
</svg>
