<svg width="20" height="20" viewBox="0 0 20 20" fill="none" xmlns="http://www.w3.org/2000/svg">
<path d="M10 10.833C12.7612 10.833 14.9996 11.9524 15 13.333C15 14.7137 12.7614 15.833 10 15.833C7.23858 15.833 5 14.7137 5 13.333C5.00035 11.9524 7.23879 10.833 10 10.833ZM5.31836 10.8496C4.34276 11.511 3.75017 12.3803 3.75 13.333C3.75 13.8732 3.94054 14.3876 4.2832 14.8516C2.74989 14.5441 1.66718 13.7935 1.66699 12.917C1.66699 11.8536 3.2603 10.9765 5.31836 10.8496ZM14.6816 10.8496C16.7397 10.9765 18.333 11.8536 18.333 12.917C18.3328 13.7935 17.2501 14.5441 15.7168 14.8516C16.0595 14.3876 16.25 13.8732 16.25 13.333C16.2498 12.3803 15.6572 11.511 14.6816 10.8496ZM5.83301 5.83301C6.00483 5.83301 6.17119 5.85894 6.32715 5.90723C6.27676 6.15236 6.25 6.40694 6.25 6.66699C6.25007 7.45045 6.49045 8.17775 6.90137 8.7793C6.61213 9.02101 6.23942 9.16699 5.83301 9.16699C4.91268 9.16682 4.16699 8.42037 4.16699 7.5C4.16699 6.57963 4.91268 5.83318 5.83301 5.83301ZM10 4.16699C11.3807 4.16699 12.5 5.28628 12.5 6.66699C12.4998 8.04755 11.3806 9.16699 10 9.16699C8.6194 9.16699 7.50018 8.04755 7.5 6.66699C7.5 5.28628 8.61929 4.16699 10 4.16699ZM14.167 5.83301C15.0873 5.8332 15.833 6.57964 15.833 7.5C15.833 8.42036 15.0873 9.1668 14.167 9.16699C13.7606 9.16699 13.3879 9.02101 13.0986 8.7793C13.5096 8.17776 13.7499 7.45045 13.75 6.66699C13.75 6.40694 13.7232 6.15236 13.6729 5.90723C13.8288 5.85894 13.9952 5.83301 14.167 5.83301Z" fill="#1383D3"/>
</svg>
