<svg width="20" height="20" viewBox="0 0 20 20" fill="none" xmlns="http://www.w3.org/2000/svg">
<path d="M6.7998 10C7.68334 10 8.40015 10.7161 8.40039 11.5996V16.4004C8.40031 17.284 7.68345 18 6.7998 18H3.59961C2.71603 17.9999 2.00008 17.284 2 16.4004V11.5996C2.00024 10.7162 2.71613 10.0001 3.59961 10H6.7998ZM16.4004 13.2002C17.2839 13.2003 17.9998 13.9163 18 14.7998V16.4004C17.9999 17.284 17.284 17.9999 16.4004 18H13.2002C12.3166 18 11.5997 17.284 11.5996 16.4004V14.7998C11.5998 13.9163 12.3166 13.2002 13.2002 13.2002H16.4004ZM16.4004 2C17.284 2.00008 17.9999 2.71603 18 3.59961V8.40039C17.9998 9.28382 17.2839 9.99992 16.4004 10H13.2002C12.3167 10 11.5999 9.28387 11.5996 8.40039V3.59961C11.5997 2.71598 12.3166 2 13.2002 2H16.4004ZM6.7998 2C7.68345 2 8.40032 2.71598 8.40039 3.59961V5.2002C8.40018 6.0837 7.68336 6.7998 6.7998 6.7998H3.59961C2.71611 6.79974 2.00021 6.08366 2 5.2002V3.59961C2.00007 2.71602 2.71602 2.00007 3.59961 2H6.7998Z" fill="#1383D3"/>
</svg>
