<svg width="20" height="21" viewBox="0 0 20 21" fill="none" xmlns="http://www.w3.org/2000/svg">
<path d="M2 4.39199C2 3.50834 2.71634 2.79199 3.6 2.79199H6.8C7.68366 2.79199 8.4 3.50834 8.4 4.39199V5.99199C8.4 6.87565 7.68366 7.59199 6.8 7.59199H3.6C2.71634 7.59199 2 6.87565 2 5.99199V4.39199Z" stroke="#28303F" stroke-width="1.5" stroke-linejoin="round"/>
<path d="M2 12.392C2 11.5083 2.71634 10.792 3.6 10.792H6.8C7.68366 10.792 8.4 11.5083 8.4 12.392V17.192C8.4 18.0756 7.68366 18.792 6.8 18.792H3.6C2.71634 18.792 2 18.0756 2 17.192V12.392Z" stroke="#28303F" stroke-width="1.5" stroke-linejoin="round"/>
<path d="M11.6 4.39199C11.6 3.50834 12.3163 2.79199 13.2 2.79199H16.4C17.2837 2.79199 18 3.50834 18 4.39199V9.19199C18 10.0756 17.2837 10.792 16.4 10.792H13.2C12.3163 10.792 11.6 10.0756 11.6 9.19199V4.39199Z" stroke="#28303F" stroke-width="1.5" stroke-linejoin="round"/>
<path d="M11.6 15.592C11.6 14.7083 12.3163 13.992 13.2 13.992H16.4C17.2837 13.992 18 14.7083 18 15.592V17.192C18 18.0756 17.2837 18.792 16.4 18.792H13.2C12.3163 18.792 11.6 18.0756 11.6 17.192V15.592Z" stroke="#28303F" stroke-width="1.5" stroke-linejoin="round"/>
</svg>
