<svg width="20" height="20" viewBox="0 0 20 20" fill="none" xmlns="http://www.w3.org/2000/svg">
<g clip-path="url(#clip0_13_150)">
<path d="M5.00002 8.33335H5.83335C6.75383 8.33335 7.50002 7.58716 7.50002 6.66669V6.25002C7.50002 5.55966 8.05966 5.00002 8.75002 5.00002C9.44038 5.00002 10 5.55966 10 6.25002V10.4167C10 11.107 10.5597 11.6667 11.25 11.6667C11.9404 11.6667 12.5 11.107 12.5 10.4167V10C12.5 9.07955 13.2462 8.33335 14.1667 8.33335H15M10 15V18.3334M5.00002 15H15C16.841 15 18.3334 13.5076 18.3334 11.6667V5.00002C18.3334 3.15907 16.841 1.66669 15 1.66669H5.00002C3.15907 1.66669 1.66669 3.15907 1.66669 5.00002V11.6667C1.66669 13.5076 3.15907 15 5.00002 15Z" stroke="#28303F" stroke-width="1.5" stroke-linecap="round"/>
<path d="M11.6667 18.3333L8.33335 18.3333" stroke="#28303F" stroke-width="1.5" stroke-linecap="round"/>
</g>
<defs>
<clipPath id="clip0_13_150">
<rect width="20" height="20" fill="white"/>
</clipPath>
</defs>
</svg>
