<svg width="20" height="20" viewBox="0 0 20 20" fill="none" xmlns="http://www.w3.org/2000/svg">
<path d="M14.333 1.66699C16.5421 1.66699 18.333 3.45785 18.333 5.66699V12.667C18.3328 14.876 16.542 16.667 14.333 16.667H10.625V17.708H11.667C12.0119 17.7082 12.2918 17.9881 12.292 18.333C12.292 18.6781 12.012 18.9578 11.667 18.958H8.33301C7.98798 18.9578 7.70801 18.6781 7.70801 18.333C7.70818 17.9881 7.98809 17.7082 8.33301 17.708H9.375V16.667H5.66699C3.45796 16.667 1.66717 14.876 1.66699 12.667V5.66699C1.66699 3.45785 3.45785 1.66699 5.66699 1.66699H14.333ZM8.75 5.20801C7.71457 5.20801 6.87518 6.04762 6.875 7.08301V7.5C6.875 8.0753 6.4083 8.54199 5.83301 8.54199H5C4.65482 8.54199 4.375 8.82181 4.375 9.16699C4.37518 9.51202 4.65493 9.79199 5 9.79199H5.83301C7.09866 9.79199 8.125 8.76565 8.125 7.5V7.08301C8.12518 6.73798 8.40493 6.45801 8.75 6.45801C9.09507 6.45801 9.37482 6.73798 9.375 7.08301V11.25C9.375 12.2855 10.2145 13.125 11.25 13.125C12.2855 13.125 13.125 12.2855 13.125 11.25V10.833C13.1252 10.2579 13.5918 9.79199 14.167 9.79199H15C15.3451 9.79199 15.6248 9.51202 15.625 9.16699C15.625 8.82181 15.3452 8.54199 15 8.54199H14.167C12.9014 8.54199 11.8752 9.5675 11.875 10.833V11.25C11.875 11.5952 11.5952 11.875 11.25 11.875C10.9048 11.875 10.625 11.5952 10.625 11.25V7.08301C10.6248 6.04762 9.78543 5.20801 8.75 5.20801Z" fill="#1383D3"/>
</svg>
