<svg width="20" height="20" viewBox="0 0 20 20" fill="none" xmlns="http://www.w3.org/2000/svg">
<path d="M12.147 15.417C12.3418 15.417 12.4996 15.5747 12.4996 15.7695C12.4996 15.8116 12.4929 15.8536 12.4771 15.8926C12.096 16.8323 11.13 17.5 9.99957 17.5C8.86932 17.4998 7.9041 16.8322 7.52301 15.8926C7.50724 15.8535 7.49959 15.8116 7.49957 15.7695C7.49957 15.5747 7.65828 15.417 7.85309 15.417H12.147ZM9.99957 2.5C12.6904 2.5 14.9552 4.57558 15.2672 7.32812L15.5543 9.86523C15.6257 10.4955 15.8811 11.0888 16.2867 11.5664C17.1479 12.58 16.4489 14.167 15.1412 14.167H4.85797C3.55053 14.1666 2.85146 12.5799 3.71246 11.5664C4.11827 11.0888 4.37445 10.4956 4.44586 9.86523L4.73297 7.32812C5.04487 4.57574 7.30896 2.50022 9.99957 2.5Z" fill="#1383D3"/>
</svg>
