<svg width="20" height="21" viewBox="0 0 20 21" fill="none" xmlns="http://www.w3.org/2000/svg">
<path d="M3.71307 12.3587L3.14151 11.8731H3.14151L3.71307 12.3587ZM4.4458 10.6574L3.70056 10.573L4.4458 10.6574ZM15.5545 10.6574L16.2998 10.573V10.573L15.5545 10.6574ZM16.2873 12.3587L16.8588 11.8731L16.2873 12.3587ZM15.2671 8.12035L14.5219 8.20477V8.20478L15.2671 8.12035ZM4.73319 8.12035L5.47843 8.20477L4.73319 8.12035ZM13.2025 16.8885C13.3478 16.5007 13.1512 16.0684 12.7634 15.923C12.3755 15.7777 11.9432 15.9743 11.7979 16.3621L12.5002 16.6253L13.2025 16.8885ZM8.20246 16.3621C8.0571 15.9743 7.62483 15.7777 7.23696 15.923C6.84909 16.0684 6.6525 16.5007 6.79786 16.8885L7.50016 16.6253L8.20246 16.3621ZM15.1417 14.9587V14.2087H4.85861V14.9587V15.7087H15.1417V14.9587ZM15.2671 8.12035L14.5219 8.20478L14.8093 10.7418L15.5545 10.6574L16.2998 10.573L16.0124 8.03593L15.2671 8.12035ZM4.4458 10.6574L5.19103 10.7418L5.47843 8.20477L4.73319 8.12035L3.98796 8.03593L3.70056 10.573L4.4458 10.6574ZM3.71307 12.3587L4.28464 12.8443C4.78814 12.2517 5.10307 11.5183 5.19103 10.7418L4.4458 10.6574L3.70056 10.573C3.6457 11.0573 3.44962 11.5104 3.14151 11.8731L3.71307 12.3587ZM15.5545 10.6574L14.8093 10.7418C14.8973 11.5183 15.2122 12.2517 15.7157 12.8443L16.2873 12.3587L16.8588 11.8731C16.5507 11.5104 16.3546 11.0573 16.2998 10.573L15.5545 10.6574ZM4.85861 14.9587V14.2087C4.23337 14.2087 3.80907 13.4041 4.28464 12.8443L3.71307 12.3587L3.14151 11.8731C1.89473 13.3406 2.86831 15.7087 4.85861 15.7087V14.9587ZM15.1417 14.9587V15.7087C17.132 15.7087 18.1056 13.3406 16.8588 11.8731L16.2873 12.3587L15.7157 12.8443C16.1913 13.4041 15.767 14.2087 15.1417 14.2087V14.9587ZM15.2671 8.12035L16.0124 8.03593C15.6596 4.92158 13.0899 2.54199 10.0002 2.54199V3.29199V4.04199C12.2922 4.04199 14.2511 5.81383 14.5219 8.20477L15.2671 8.12035ZM4.73319 8.12035L5.47843 8.20477C5.74927 5.81383 7.70811 4.04199 10.0002 4.04199V3.29199V2.54199C6.91046 2.54199 4.34075 4.92158 3.98796 8.03593L4.73319 8.12035ZM12.5002 16.6253L11.7979 16.3621C11.5479 17.029 10.8539 17.542 10.0002 17.542V18.292V19.042C11.4548 19.042 12.7246 18.1636 13.2025 16.8885L12.5002 16.6253ZM10.0002 18.292V17.542C9.14642 17.542 8.4524 17.029 8.20246 16.3621L7.50016 16.6253L6.79786 16.8885C7.27574 18.1636 8.54552 19.042 10.0002 19.042V18.292Z" fill="#28303F"/>
</svg>
