<svg width="20" height="21" viewBox="0 0 20 21" fill="none" xmlns="http://www.w3.org/2000/svg">
<path d="M10 2.79199C14.4183 2.79199 18 6.37371 18 10.792C18 12.7754 17.2783 14.5904 16.083 15.9883C15.1182 17.1166 13.5558 16.2179 13.5557 14.7334V14.3477C13.5557 13.366 12.7599 12.5706 11.7783 12.5703C10.7965 12.5703 10 13.3658 10 14.3477V16.792C10 17.8965 9.09088 18.8173 8.02051 18.5449C4.55976 17.6639 2 14.527 2 10.792C2.00003 6.37373 5.58173 2.79202 10 2.79199ZM6.66699 12.459C5.97674 12.459 5.41717 13.0188 5.41699 13.709C5.41699 14.3993 5.97663 14.959 6.66699 14.959C7.35725 14.9589 7.91699 14.3993 7.91699 13.709C7.91681 13.0189 7.35714 12.4591 6.66699 12.459ZM14.167 7.875C13.4767 7.875 12.9172 8.4348 12.917 9.125C12.917 9.81536 13.4766 10.375 14.167 10.375C14.8573 10.375 15.417 9.81534 15.417 9.125C15.4168 8.43481 14.8572 7.87502 14.167 7.875ZM7.91699 5.79199C7.22669 5.79199 6.66709 6.35171 6.66699 7.04199C6.66699 7.73235 7.22663 8.29199 7.91699 8.29199C8.60721 8.29182 9.16699 7.73225 9.16699 7.04199C9.1669 6.35182 8.60715 5.79216 7.91699 5.79199Z" fill="#1B5779"/>
</svg>
