<svg width="20" height="21" viewBox="0 0 20 21" fill="none" xmlns="http://www.w3.org/2000/svg">
<path d="M8.34381 18.5662L8.49144 17.8309H8.49144L8.34381 18.5662ZM15.5778 16.403L15.0498 15.8703L15.5778 16.403ZM9.13359 7.17315H9.88359C9.88359 6.096 9.00751 5.22829 7.93359 5.22829V5.97829V6.72829C8.18516 6.72829 8.38359 6.93049 8.38359 7.17315H9.13359ZM7.93359 5.97829V5.22829C6.85968 5.22829 5.98359 6.096 5.98359 7.17315H6.73359H7.48359C7.48359 6.93049 7.68203 6.72829 7.93359 6.72829V5.97829ZM6.73359 7.17315H5.98359C5.98359 8.2503 6.85968 9.11801 7.93359 9.11801V8.36801V7.61801C7.68203 7.61801 7.48359 7.41581 7.48359 7.17315H6.73359ZM7.93359 8.36801V9.11801C9.00751 9.11801 9.88359 8.2503 9.88359 7.17315H9.13359H8.38359C8.38359 7.41581 8.18516 7.61801 7.93359 7.61801V8.36801ZM15.1336 9.16458H15.8836C15.8836 8.08743 15.0075 7.21972 13.9336 7.21972V7.96972V8.71972C14.1852 8.71972 14.3836 8.92192 14.3836 9.16458H15.1336ZM13.9336 7.96972V7.21972C12.8597 7.21972 11.9836 8.08743 11.9836 9.16458H12.7336H13.4836C13.4836 8.92192 13.682 8.71972 13.9336 8.71972V7.96972ZM12.7336 9.16458H11.9836C11.9836 10.2417 12.8597 11.1094 13.9336 11.1094V10.3594V9.60944C13.682 9.60944 13.4836 9.40724 13.4836 9.16458H12.7336ZM13.9336 10.3594V11.1094C15.0075 11.1094 15.8836 10.2417 15.8836 9.16458H15.1336H14.3836C14.3836 9.40724 14.1852 9.60944 13.9336 9.60944V10.3594ZM7.93359 13.5457H8.68359C8.68359 12.4686 7.80751 11.6009 6.73359 11.6009V12.3509V13.1009C6.98516 13.1009 7.18359 13.3031 7.18359 13.5457H7.93359ZM6.73359 12.3509V11.6009C5.65968 11.6009 4.78359 12.4686 4.78359 13.5457H5.53359H6.28359C6.28359 13.3031 6.48203 13.1009 6.73359 13.1009V12.3509ZM5.53359 13.5457H4.78359C4.78359 14.6229 5.65968 15.4906 6.73359 15.4906V14.7406V13.9906C6.48203 13.9906 6.28359 13.7884 6.28359 13.5457H5.53359ZM6.73359 14.7406V15.4906C7.80751 15.4906 8.68359 14.6229 8.68359 13.5457H7.93359H7.18359C7.18359 13.7884 6.98516 13.9906 6.73359 13.9906V14.7406ZM8.34381 18.5662L8.49144 17.8309C5.17602 17.1652 2.68359 14.2486 2.68359 10.7577H1.93359H1.18359C1.18359 14.9815 4.19825 18.4989 8.19618 19.3015L8.34381 18.5662ZM1.93359 10.7577H2.68359C2.68359 6.77562 5.92649 3.54199 9.93359 3.54199V2.79199V2.04199C5.10414 2.04199 1.18359 5.94113 1.18359 10.7577H1.93359ZM9.93359 2.79199V3.54199C13.9407 3.54199 17.1836 6.77562 17.1836 10.7577H17.9336H18.6836C18.6836 5.94113 14.763 2.04199 9.93359 2.04199V2.79199ZM11.7114 12.5279V13.2779C12.282 13.2779 12.7392 13.7377 12.7392 14.2981H13.4892H14.2392C14.2392 12.9032 13.1044 11.7779 11.7114 11.7779V12.5279ZM9.93359 14.2981H10.6836C10.6836 13.7377 11.1407 13.2779 11.7114 13.2779V12.5279V11.7779C10.3184 11.7779 9.18359 12.9032 9.18359 14.2981H9.93359ZM13.4892 14.2981H12.7392V15.3247H13.4892H14.2392V14.2981H13.4892ZM17.9336 10.7577H17.1836C17.1836 12.7552 16.369 14.5625 15.0498 15.8703L15.5778 16.403L16.1058 16.9356C17.6968 15.3584 18.6836 13.1724 18.6836 10.7577H17.9336ZM9.93359 14.2981H9.18359V17.1303H9.93359H10.6836V14.2981H9.93359ZM13.4892 15.3247H12.7392C12.7392 16.1835 13.1949 16.9188 13.8604 17.2795C14.5531 17.6551 15.4381 17.5974 16.1058 16.9356L15.5778 16.403L15.0498 15.8703C14.9481 15.9711 14.8612 16.0011 14.8002 16.009C14.7347 16.0174 14.6576 16.0055 14.5753 15.9609C14.4068 15.8696 14.2392 15.6485 14.2392 15.3247H13.4892ZM8.34381 18.5662L8.19618 19.3015C9.62611 19.5886 10.6836 18.3766 10.6836 17.1303H9.93359H9.18359C9.18359 17.3666 9.0859 17.5696 8.95096 17.6959C8.82334 17.8154 8.66726 17.8662 8.49144 17.8309L8.34381 18.5662Z" fill="#28303F"/>
</svg>
