<svg width="20" height="21" viewBox="0 0 20 21" fill="none" xmlns="http://www.w3.org/2000/svg">
<path d="M17.2866 13.8925L16.647 13.5008L16.647 13.5008L17.2866 13.8925ZM16.4911 15.1915L17.1307 15.5832V15.5832L16.4911 15.1915ZM2.71341 7.69151L2.0738 7.29984H2.0738L2.71341 7.69151ZM3.50887 6.39247L4.14848 6.78413V6.78413L3.50887 6.39247ZM5.6821 5.84343L6.04068 5.1847L6.04068 5.1847L5.6821 5.84343ZM3.29572 9.74054L2.93714 10.3993H2.93714L3.29572 9.74054ZM14.3179 15.7405L13.9593 16.3993L13.9593 16.3993L14.3179 15.7405ZM16.7043 11.8434L16.3457 12.5022L16.7043 11.8434ZM3.50887 15.1915L2.86925 15.5832H2.86925L3.50887 15.1915ZM2.71341 13.8925L3.35302 13.5008H3.35302L2.71341 13.8925ZM16.4911 6.39248L17.1307 6.00082V6.00082L16.4911 6.39248ZM17.2866 7.69152L16.647 8.08318L16.647 8.08318L17.2866 7.69152ZM16.7043 9.74055L17.0629 10.3993L16.7043 9.74055ZM14.3179 5.84344L14.6765 6.50217L14.6765 6.50217L14.3179 5.84344ZM3.29572 11.8434L3.6543 12.5022H3.6543L3.29572 11.8434ZM5.6821 15.7406L5.32352 15.0818L5.32351 15.0818L5.6821 15.7406ZM14.2333 5.88947L13.8748 5.23075V5.23075L14.2333 5.88947ZM5.76667 5.88947L5.40808 6.54819L5.40809 6.54819L5.76667 5.88947ZM14.2333 15.6945L14.5919 15.0358L14.5919 15.0358L14.2333 15.6945ZM5.76667 15.6945L6.12524 16.3532L6.12525 16.3532L5.76667 15.6945ZM9.20454 3.29199V4.04199H10.7955V3.29199V2.54199H9.20454V3.29199ZM10.7955 18.292V17.542H9.20454V18.292V19.042H10.7955V18.292ZM9.20454 18.292V17.542C8.69793 17.542 8.36363 17.1652 8.36363 16.792H7.61363H6.86363C6.86363 18.0756 7.95388 19.042 9.20454 19.042V18.292ZM12.3864 16.792H11.6364C11.6364 17.1652 11.3021 17.542 10.7955 17.542V18.292V19.042C12.0461 19.042 13.1364 18.0756 13.1364 16.792H12.3864ZM10.7955 3.29199V4.04199C11.3021 4.04199 11.6364 4.41875 11.6364 4.79199H12.3864H13.1364C13.1364 3.50838 12.0461 2.54199 10.7955 2.54199V3.29199ZM9.20454 3.29199V2.54199C7.95388 2.54199 6.86363 3.50838 6.86363 4.79199H7.61363H8.36363C8.36363 4.41875 8.69793 4.04199 9.20454 4.04199V3.29199ZM17.2866 13.8925L16.647 13.5008L15.8515 14.7998L16.4911 15.1915L17.1307 15.5832L17.9262 14.2841L17.2866 13.8925ZM2.71341 7.69151L3.35302 8.08317L4.14848 6.78413L3.50887 6.39247L2.86926 6.00081L2.0738 7.29984L2.71341 7.69151ZM3.50887 6.39247L4.14848 6.78413C4.36925 6.42359 4.89631 6.2696 5.32351 6.50215L5.6821 5.84343L6.04068 5.1847C4.94603 4.58883 3.52712 4.92647 2.86926 6.00081L3.50887 6.39247ZM3.29572 9.74054L3.65431 9.08182C3.2505 8.862 3.14948 8.41556 3.35302 8.08317L2.71341 7.69151L2.0738 7.29984C1.3987 8.40233 1.8191 9.79066 2.93714 10.3993L3.29572 9.74054ZM16.4911 15.1915L15.8515 14.7998C15.6307 15.1604 15.1037 15.3144 14.6765 15.0818L14.3179 15.7405L13.9593 16.3993C15.054 16.9951 16.4729 16.6575 17.1307 15.5832L16.4911 15.1915ZM17.2866 13.8925L17.9262 14.2841C18.6013 13.1816 18.1809 11.7933 17.0629 11.1847L16.7043 11.8434L16.3457 12.5022C16.7495 12.722 16.8505 13.1684 16.647 13.5008L17.2866 13.8925ZM3.50887 15.1915L4.14848 14.7999L3.35302 13.5008L2.71341 13.8925L2.0738 14.2841L2.86925 15.5832L3.50887 15.1915ZM16.4911 6.39248L15.8515 6.78414L16.647 8.08318L17.2866 7.69152L17.9262 7.29986L17.1307 6.00082L16.4911 6.39248ZM17.2866 7.69152L16.647 8.08318C16.8505 8.41557 16.7495 8.86202 16.3457 9.08183L16.7043 9.74055L17.0629 10.3993C18.1809 9.79067 18.6013 8.40234 17.9262 7.29985L17.2866 7.69152ZM14.3179 5.84344L14.6765 6.50217C15.1037 6.26962 15.6307 6.4236 15.8515 6.78414L16.4911 6.39248L17.1307 6.00082C16.4729 4.92648 15.054 4.58884 13.9593 5.18472L14.3179 5.84344ZM2.71341 13.8925L3.35302 13.5008C3.14948 13.1684 3.2505 12.722 3.6543 12.5022L3.29572 11.8434L2.93714 11.1847C1.8191 11.7933 1.3987 13.1817 2.0738 14.2841L2.71341 13.8925ZM3.50887 15.1915L2.86925 15.5832C3.52712 16.6575 4.94603 16.9952 6.04068 16.3993L5.6821 15.7406L5.32351 15.0818C4.89631 15.3144 4.36925 15.1604 4.14848 14.7999L3.50887 15.1915ZM14.2333 5.88947L14.5919 6.5482L14.6765 6.50217L14.3179 5.84344L13.9593 5.18471L13.8748 5.23075L14.2333 5.88947ZM5.6821 5.84343L5.32351 6.50215L5.40808 6.54819L5.76667 5.88947L6.12525 5.23074L6.04068 5.1847L5.6821 5.84343ZM14.3179 15.7405L14.6765 15.0818L14.5919 15.0358L14.2333 15.6945L13.8748 16.3532L13.9593 16.3993L14.3179 15.7405ZM5.76667 15.6945L5.40809 15.0358L5.32352 15.0818L5.6821 15.7406L6.04067 16.3993L6.12524 16.3532L5.76667 15.6945ZM3.29572 9.74054L2.93714 10.3993C3.24828 10.5686 3.24829 11.0153 2.93714 11.1847L3.29572 11.8434L3.6543 12.5022C5.00923 11.7646 5.00923 9.81938 3.65431 9.08182L3.29572 9.74054ZM5.76667 15.6945L6.12525 16.3532C6.45812 16.172 6.86363 16.413 6.86363 16.792H7.61363H8.36363C8.36363 15.275 6.74049 14.3105 5.40808 15.0358L5.76667 15.6945ZM12.3864 16.792H13.1364C13.1364 16.413 13.5419 16.172 13.8748 16.3532L14.2333 15.6945L14.5919 15.0358C13.2595 14.3105 11.6364 15.275 11.6364 16.792H12.3864ZM16.7043 11.8434L17.0629 11.1847C16.7517 11.0153 16.7517 10.5686 17.0629 10.3993L16.7043 9.74055L16.3457 9.08183C14.9908 9.81939 14.9908 11.7646 16.3457 12.5022L16.7043 11.8434ZM5.76667 5.88947L5.40809 6.54819C6.74049 7.27349 8.36363 6.30902 8.36363 4.79199H7.61363H6.86363C6.86363 5.17099 6.45812 5.41194 6.12525 5.23074L5.76667 5.88947ZM14.2333 5.88947L13.8748 5.23075C13.5419 5.41195 13.1364 5.17099 13.1364 4.79199H12.3864H11.6364C11.6364 6.30902 13.2595 7.2735 14.5919 6.5482L14.2333 5.88947ZM12.5 10.792H11.75C11.75 11.7585 10.9665 12.542 10 12.542V13.292V14.042C11.7949 14.042 13.25 12.5869 13.25 10.792H12.5ZM10 13.292V12.542C9.03351 12.542 8.25001 11.7585 8.25001 10.792H7.50001H6.75001C6.75001 12.5869 8.20508 14.042 10 14.042V13.292ZM7.50001 10.792H8.25001C8.25001 9.82549 9.03351 9.04199 10 9.04199V8.29199V7.54199C8.20508 7.54199 6.75001 8.99707 6.75001 10.792H7.50001ZM10 8.29199V9.04199C10.9665 9.04199 11.75 9.82549 11.75 10.792H12.5H13.25C13.25 8.99707 11.7949 7.54199 10 7.54199V8.29199Z" fill="#28303F"/>
</svg>
